<?xml version="1.0" encoding="UTF-8" standalone="no"?>
<!DOCTYPE svg PUBLIC "-//W3C//DTD SVG 1.1//EN" "http://www.w3.org/Graphics/SVG/1.1/DTD/svg11.dtd">
<svg width="100%" height="100%" viewBox="0 0 600 425" version="1.1" xmlns="http://www.w3.org/2000/svg" xmlns:xlink="http://www.w3.org/1999/xlink" xml:space="preserve" xmlns:serif="http://www.serif.com/" style="fill-rule:evenodd;clip-rule:evenodd;stroke-linejoin:round;stroke-miterlimit:2;">
    <g>
        <g transform="matrix(0.912633,0,0,0.896314,323.267,212.5)">
            <g transform="matrix(1,0,0,1,-333.333,-166.667)">
                <clipPath id="_clip1">
                    <rect x="0" y="0" width="666.667" height="333.333"/>
                </clipPath>
                <g clip-path="url(#_clip1)">
                    <g transform="matrix(4.16667,0,0,4.16667,0,0)">
                        <g transform="matrix(0.262975,-0,-0,0.267763,-5.01123,-16.8997)">
                        </g>
                    </g>
                </g>
            </g>
        </g>
        <g transform="matrix(1,0,0,1,41.4229,2.60417)">
            <g>
                <g transform="matrix(4.16667,0,0,4.16667,-41.5,38.0833)">
                    <path d="M64.62,40.08C64.502,40.004 64.097,39.89 63.88,39.89C63.697,39.89 62.33,39.89 62.33,41.58L62.33,45.2L59.79,45.2L59.79,37.39L62.29,37.39L62.29,39.13L62.31,39.13C62.559,37.97 63.521,37.27 64.52,37.27C64.58,37.27 64.975,37.27 65.26,37.36C65.047,38.267 64.833,39.173 64.62,40.08Z" style="fill:rgb(5,147,116);fill-rule:nonzero;"/>
                </g>
                <g transform="matrix(4.16667,0,0,4.16667,-41.5,38.0833)">
                    <path d="M65.14,41.27C65.14,38.75 67.02,37.13 69.19,37.13C71.376,37.13 72.73,38.637 72.73,40.34C72.73,40.407 72.73,40.75 72.66,41.17L71.59,41.96L67.52,41.96C67.64,42.425 68.163,43.44 69.97,43.44C70.155,43.44 71.353,43.44 72.21,42.89C72.13,43.59 72.05,44.29 71.97,44.99C71.022,45.44 69.756,45.44 69.56,45.44C67.054,45.44 65.14,43.725 65.14,41.27ZM67.58,40.33L70.38,40.33L70.38,40.14C70.38,39.611 69.867,38.97 69.17,38.97C67.988,38.97 67.628,40.17 67.58,40.33Z" style="fill:rgb(5,147,116);fill-rule:nonzero;"/>
                </g>
                <g transform="matrix(4.16667,0,0,4.16667,-41.5,38.0833)">
                    <path d="M76.04,45.38C74.707,45.38 73.77,44.919 73.59,44.83C73.517,44.107 73.443,43.383 73.37,42.66C73.538,42.781 74.529,43.49 75.82,43.49C75.9,43.49 76.63,43.49 76.63,42.9C76.63,42.05 73.49,42.255 73.49,39.66C73.49,38.214 74.646,37.25 76.37,37.25C77.211,37.25 78.321,37.518 78.65,37.7L78.24,39.49C78.12,39.427 77.459,39.08 76.6,39.08C76.531,39.08 75.88,39.08 75.88,39.56C75.88,40.437 79.09,40.226 79.09,42.82C79.09,44.173 78.165,45.39 76.05,45.39L76.04,45.38Z" style="fill:rgb(5,147,116);fill-rule:nonzero;"/>
                </g>
                <g transform="matrix(4.16667,0,0,4.16667,-41.5,38.0833)">
                    <path d="M83.86,45.45C81.523,45.45 79.62,43.753 79.62,41.31C79.62,38.864 81.537,37.14 83.86,37.14C86.187,37.14 88.12,38.847 88.12,41.31C88.12,43.77 86.2,45.45 83.86,45.45ZM83.86,39.31C82.992,39.31 82.1,40.113 82.1,41.31C82.1,42.507 82.992,43.31 83.86,43.31C84.728,43.31 85.62,42.507 85.62,41.31C85.62,40.107 84.737,39.31 83.86,39.31Z" style="fill:rgb(5,147,116);fill-rule:nonzero;"/>
                </g>
                <g transform="matrix(4.16667,0,0,4.16667,-41.5,38.0833)">
                    <path d="M94.07,45.21L94.07,44.14C93.926,44.503 93.371,45.45 91.67,45.45C89.951,45.45 88.93,44.438 88.93,42.83L88.93,37.4L91.47,37.4L91.47,42.2C91.47,42.719 91.875,43.27 92.63,43.27C93.383,43.27 93.87,42.721 93.87,42.15L93.87,37.41L96.41,37.41L96.41,45.22L94.08,45.22L94.07,45.21Z" style="fill:rgb(5,147,116);fill-rule:nonzero;"/>
                </g>
                <g transform="matrix(4.16667,0,0,4.16667,-41.5,38.0833)">
                    <path d="M102.31,40.08C102.192,40.004 101.787,39.89 101.57,39.89C101.387,39.89 100.02,39.89 100.02,41.58L100.02,45.2L97.48,45.2L97.48,37.39L99.98,37.39L99.98,39.13L100,39.13C100.249,37.97 101.211,37.27 102.21,37.27C102.27,37.27 102.665,37.27 102.95,37.36C102.737,38.267 102.523,39.173 102.31,40.08Z" style="fill:rgb(5,147,116);fill-rule:nonzero;"/>
                </g>
                <g transform="matrix(4.16667,0,0,4.16667,-41.5,38.0833)">
                    <path d="M109.11,39.88C108.994,39.803 108.352,39.38 107.44,39.38C106.401,39.38 105.46,40.211 105.46,41.29C105.46,42.337 106.358,43.27 107.58,43.27C107.714,43.27 108.41,43.27 109.2,42.86C109.127,43.573 109.053,44.287 108.98,45C108.22,45.38 107.3,45.38 107.15,45.38C104.783,45.38 102.84,43.775 102.84,41.31C102.84,38.838 104.889,37.24 107.03,37.24C107.239,37.24 108.562,37.24 109.58,37.83C109.423,38.513 109.267,39.197 109.11,39.88Z" style="fill:rgb(5,147,116);fill-rule:nonzero;"/>
                </g>
                <g transform="matrix(4.16667,0,0,4.16667,-41.5,38.0833)">
                    <path d="M109.7,41.27C109.7,38.75 111.58,37.13 113.75,37.13C115.936,37.13 117.29,38.637 117.29,40.34C117.29,40.407 117.29,40.75 117.22,41.17L116.15,41.96L112.08,41.96C112.2,42.425 112.723,43.44 114.53,43.44C114.715,43.44 115.913,43.44 116.77,42.89C116.69,43.59 116.61,44.29 116.53,44.99C115.582,45.44 114.316,45.44 114.12,45.44C111.614,45.44 109.7,43.725 109.7,41.27ZM112.14,40.33L114.94,40.33L114.94,40.14C114.94,39.611 114.427,38.97 113.73,38.97C112.548,38.97 112.188,40.17 112.14,40.33Z" style="fill:rgb(5,147,116);fill-rule:nonzero;"/>
                </g>
                <g transform="matrix(4.16667,0,0,4.16667,-41.5,38.0833)">
                    <path d="M120.6,45.38C119.267,45.38 118.33,44.919 118.15,44.83C118.077,44.107 118.003,43.383 117.93,42.66C118.098,42.781 119.089,43.49 120.38,43.49C120.46,43.49 121.19,43.49 121.19,42.9C121.19,42.05 118.05,42.255 118.05,39.66C118.05,38.214 119.206,37.25 120.93,37.25C121.771,37.25 122.881,37.518 123.21,37.7L122.8,39.49C122.68,39.427 122.019,39.08 121.16,39.08C121.091,39.08 120.44,39.08 120.44,39.56C120.44,40.437 123.65,40.226 123.65,42.82C123.65,44.173 122.725,45.39 120.61,45.39L120.6,45.38Z" style="fill:rgb(5,147,116);fill-rule:nonzero;"/>
                </g>
                <g transform="matrix(4.16667,0,0,4.16667,-41.5,38.0833)">
                    <path d="M44.38,39.55C43.958,39.55 43.506,39.819 43.29,40.26L43.29,42.01C43.506,42.451 43.958,42.72 44.38,42.72C45.005,42.72 45.68,42.111 45.68,41.11C45.68,40.098 44.988,39.55 44.38,39.55M44.99,45.29C44.841,45.29 43.821,45.29 43.23,44.68L43.23,49.02C41.617,49.02 40.27,47.682 40.27,46.06L40.27,37.19L42.92,37.19L42.92,38.12L42.95,38.14C43.042,37.962 43.567,36.95 45.15,36.95C47.184,36.95 48.71,38.476 48.71,41.01C48.71,43.52 47.026,45.28 44.99,45.28" style="fill:rgb(24,50,75);fill-rule:nonzero;"/>
                </g>
                <g transform="matrix(4.16667,0,0,4.16667,-41.5,38.0833)">
                    <path d="M55.07,39.97L53.24,39.97L53.24,41.99C53.24,42.569 53.555,42.89 54.14,42.89C54.397,42.89 54.712,42.803 54.76,42.79C54.673,43.567 54.587,44.343 54.5,45.12C54.02,45.36 53.241,45.36 53.13,45.36C51.099,45.36 50.17,44.241 50.17,42.78L50.17,39.96L49.01,39.96L49.01,37.4L50.17,37.4L50.17,35.69C51.19,35.36 52.21,35.03 53.23,34.7L53.23,37.4L55.67,37.4C55.467,38.253 55.263,39.107 55.06,39.96L55.07,39.97Z" style="fill:rgb(24,50,75);fill-rule:nonzero;"/>
                </g>
                <g transform="matrix(0.0492774,0,0,0.0492774,84.5104,209.896)">
                    <g transform="matrix(1,0,0,1,-833.333,-833.333)">
                        <g id="Layer-1" serif:id="Layer 1" transform="matrix(4.16667,0,0,4.16667,0,0)">
                            <g transform="matrix(1,0,0,1,292.586,31.3728)">
                                <path d="M0,24.244C6.677,24.244 12.122,18.799 12.122,12.122C12.122,5.446 6.677,-0 0,0C-6.676,0 -12.122,5.446 -12.122,12.122C-12.122,18.799 -6.676,24.244 0,24.244" style="fill:rgb(239,76,35);fill-rule:nonzero;"/>
                            </g>
                            <g transform="matrix(1,0,0,1,320.333,223.455)">
                                <path d="M0,-1.637C0.075,-2.851 -2.498,-26.608 -2.864,-28.794C-29.502,-25.525 -56.139,-22.256 -82.777,-18.987C-76.35,-24.082 -31.869,-59.174 -18.928,-67.147C-24.865,-75.631 -34.018,-88.575 -34.959,-89.56C-56.329,-73.57 -77.699,-57.579 -99.069,-41.589C-88.955,-65.847 -78.841,-90.105 -68.727,-114.363C-76.458,-118.041 -87.917,-123.47 -92.708,-125.712C-103.494,-101.055 -114.281,-76.398 -125.067,-51.741C-128.79,-78.294 -132.512,-104.846 -136.235,-131.399C-137.401,-131.129 -161.287,-127.984 -162.893,-127.405C-159.664,-100.992 -156.436,-74.579 -153.207,-48.166C-169.15,-69.273 -185.092,-90.38 -201.035,-111.487C-202.212,-110.808 -218.939,-96.679 -222.861,-93.688C-221.578,-92.492 -193.834,-56.108 -180.819,-37.988C-180.058,-36.928 -177.57,-33.76 -176.405,-32.16C-200.899,-42.059 -225.392,-51.957 -249.886,-61.856C-253.439,-53.49 -256.993,-45.125 -260.546,-36.759C-235.841,-26.344 -211.136,-15.93 -186.431,-5.515C-187.735,-5.343 -266.263,4.537 -266.102,5.462C-265.916,6.541 -262.807,32.562 -261.126,32.055C-259.439,31.547 -203.665,25.013 -182.848,22.62C-204.158,38.673 -225.469,54.727 -246.779,70.78C-246.233,71.843 -236.71,84.259 -230.18,92.678C-208.874,76.664 -187.568,60.651 -166.262,44.637C-172.968,60.409 -197.072,117.298 -196.979,118.409C-195.495,119.142 -183.643,124.255 -172.453,129.026C-158.089,95.789 -143.725,62.551 -129.361,29.314C-107.116,58.422 -84.872,87.53 -62.627,116.638C-53.951,127.99 -37.129,129.731 -26.766,119.923C-26.733,119.891 -26.436,119.61 -26.369,119.508C-44.322,95.656 -99.335,22.299 -106.871,12.374C-71.247,7.704 -35.624,3.033 0,-1.637Z" style="fill:rgb(239,76,35);fill-rule:nonzero;"/>
                            </g>
                            <g transform="matrix(0.999777,0.021106,0.021106,-0.999777,252.105,72.8575)">
                                <path d="M0.31,-0.003C8.4,-0.003 14.997,6.595 14.997,14.685C14.998,22.775 8.4,29.372 0.31,29.372C-7.78,29.372 -14.378,22.774 -14.378,14.684C-14.378,6.594 -7.78,-0.003 0.31,-0.003" style="fill:rgb(239,76,35);fill-rule:nonzero;"/>
                            </g>
                            <g transform="matrix(1,0,0,1,230.227,15.7551)">
                                <path d="M-0,15.618C4.272,15.618 7.809,12.081 7.809,7.809C7.809,3.537 4.272,0 -0,-0C-4.272,0 -7.809,3.537 -7.809,7.809C-7.809,12.081 -4.272,15.618 -0,15.618" style="fill:rgb(239,76,35);fill-rule:nonzero;"/>
                            </g>
                        </g>
                    </g>
                </g>
            </g>
        </g>
    </g>
</svg>
