<?xml version="1.0" encoding="UTF-8" standalone="no"?>
<!DOCTYPE svg PUBLIC "-//W3C//DTD SVG 1.1//EN" "http://www.w3.org/Graphics/SVG/1.1/DTD/svg11.dtd">
<svg width="100%" height="100%" viewBox="0 0 1109 1404" version="1.1" xmlns="http://www.w3.org/2000/svg" xmlns:xlink="http://www.w3.org/1999/xlink" xml:space="preserve" xmlns:serif="http://www.serif.com/" style="fill-rule:evenodd;clip-rule:evenodd;stroke-linejoin:round;stroke-miterlimit:2;">
    <g transform="matrix(1,0,0,1,-225.962,-65.6463)">
        <g transform="matrix(4.16667,0,0,4.16667,0,0)">
            <g transform="matrix(1,0,0,1,292.586,31.3728)">
                <path d="M0,24.244C6.695,24.244 12.122,18.817 12.122,12.122C12.122,5.428 6.695,0 0,0C-6.694,0 -12.122,5.428 -12.122,12.122C-12.122,18.817 -6.694,24.244 0,24.244" style="fill:rgb(239,76,35);fill-rule:nonzero;"/>
            </g>
        </g>
        <g transform="matrix(4.16667,0,0,4.16667,0,0)">
            <g transform="matrix(1,0,0,1,320.333,223.455)">
                <path d="M0,-1.637C0.078,-2.904 -2.504,-26.646 -2.864,-28.794L-82.777,-18.987C-82.777,-18.987 -32.85,-58.569 -18.928,-67.147C-18.928,-67.147 -33.668,-88.21 -34.959,-89.56L-99.069,-41.589L-68.727,-114.363C-68.727,-114.363 -85.157,-122.179 -92.708,-125.712L-125.067,-51.741L-136.235,-131.399C-137.556,-131.093 -161.215,-128.01 -162.893,-127.405L-153.207,-48.166L-201.035,-111.487C-202.284,-110.766 -218.659,-96.893 -222.861,-93.688C-221.559,-92.475 -193.821,-56.089 -180.819,-37.988C-179.39,-35.998 -178.32,-34.789 -176.405,-32.16L-249.886,-61.856L-260.546,-36.759L-186.431,-5.515C-188.704,-5.216 -266.263,4.535 -266.102,5.462C-265.846,6.945 -262.823,32.567 -261.126,32.055C-259.349,31.52 -200.313,24.628 -182.848,22.62L-246.779,70.78C-246.02,72.256 -230.18,92.678 -230.18,92.678L-166.262,44.637C-166.262,44.637 -197.085,117.137 -196.979,118.409C-194.62,119.574 -172.453,129.026 -172.453,129.026L-129.361,29.314L-62.627,116.638C-53.935,128.011 -37.162,129.762 -26.766,119.923C-26.551,119.719 -26.415,119.578 -26.369,119.508C-45.475,94.124 -99.07,22.647 -106.871,12.374L0,-1.637Z" style="fill:rgb(239,76,35);fill-rule:nonzero;"/>
            </g>
        </g>
        <g transform="matrix(4.16667,0,0,4.16667,0,0)">
            <g transform="matrix(0.999777,0.021106,0.021106,-0.999777,252.105,72.8575)">
                <path d="M0.31,-0.003C8.422,-0.003 14.997,6.573 14.997,14.685C14.998,22.797 8.422,29.372 0.31,29.372C-7.802,29.372 -14.378,22.796 -14.378,14.684C-14.378,6.572 -7.802,-0.003 0.31,-0.003" style="fill:rgb(239,76,35);fill-rule:nonzero;"/>
            </g>
        </g>
        <g transform="matrix(4.16667,0,0,4.16667,0,0)">
            <g transform="matrix(1,0,0,1,230.227,15.7551)">
                <path d="M0,15.618C4.313,15.618 7.809,12.122 7.809,7.809C7.809,3.496 4.313,0 0,0C-4.313,0 -7.809,3.496 -7.809,7.809C-7.809,12.122 -4.313,15.618 0,15.618" style="fill:rgb(239,76,35);fill-rule:nonzero;"/>
            </g>
        </g>
    </g>
</svg>
