<svg width="100%" height="100%" viewBox="0 0 1334 926" version="1.1" xmlns="http://www.w3.org/2000/svg" xmlns:xlink="http://www.w3.org/1999/xlink" xml:space="preserve" style="fill-rule:evenodd;clip-rule:evenodd;stroke-linejoin:round;stroke-miterlimit:2;">
    <g transform="matrix(1,0,0,1,-166.493,-294.754)">
        <g transform="matrix(4.16667,0,0,4.16667,0,0)">
            <g transform="matrix(1,0,0,1,312.891,131.491)">
                <path d="M0,94.302C26.041,94.302 47.151,73.192 47.151,47.151C47.151,21.111 26.041,0 0,0C-26.04,0 -47.15,21.111 -47.15,47.151C-47.15,73.192 -26.04,94.302 0,94.302" style="fill:black;fill-rule:nonzero;"/>
            </g>
        </g>
        <g transform="matrix(4.16667,0,0,4.16667,0,0)">
            <g transform="matrix(0.999777,0.0211004,0.0211004,-0.999777,155.43,292.855)">
                <path d="M1.205,-0.013C32.759,-0.013 58.337,25.566 58.337,57.119C58.337,88.673 32.757,114.251 1.205,114.251C-30.349,114.25 -55.926,88.672 -55.927,57.118C-55.927,25.565 -30.348,-0.013 1.205,-0.013" style="fill:black;fill-rule:nonzero;"/>
            </g>
        </g>
        <g transform="matrix(4.16667,0,0,4.16667,0,0)">
            <g transform="matrix(1,0,0,1,70.3323,70.741)">
                <path d="M0,60.75C16.776,60.75 30.376,47.151 30.376,30.375C30.376,13.599 16.776,0 0,0C-16.775,0 -30.374,13.599 -30.374,30.375C-30.374,47.151 -16.775,60.75 0,60.75" style="fill:black;fill-rule:nonzero;"/>
            </g>
        </g>
    </g>
</svg> 