<?xml version="1.0" encoding="UTF-8"?>
<!-- Generated by Pixelmator Pro 3.7 -->
<svg width="1193" height="128" viewBox="0 0 1193 128" xmlns="http://www.w3.org/2000/svg">
    <g id="Group">
        <g id="g1">
            <g id="g2">
                <path id="Path" fill="#ffffff" stroke="none" d="M 41.777695 42.650932 L 20.415176 42.650932 L 20.415176 79.696793 C 20.415176 86.863464 24.336014 89.567627 30.419357 89.567627 C 32.852692 89.567627 34.881866 89.163467 36.502701 88.350967 L 35.556854 95.788467 C 33.798523 96.734306 31.365189 97.005142 29.069351 97.005142 C 19.469345 97.005142 11.898514 91.459305 11.898514 80.780121 L 11.898514 42.650932 L 0.673508 42.650932 L 0.673508 35.213425 L 11.898514 35.213425 L 11.898514 21.963409 L 20.415176 17.500908 L 20.415176 35.213425 L 43.669373 35.213425 L 41.777695 42.650932 Z"/>
            </g>
        </g>
        <g id="g3">
            <g id="g4">
                <path id="path1" fill="#ffffff" stroke="none" d="M 97.075241 96.467636 L 97.075241 56.042603 C 97.075241 47.655098 91.262741 41.300926 80.308563 41.300926 C 69.762726 41.300926 63.004379 47.655098 63.004379 56.042603 L 63.004379 96.467636 L 54.350204 96.467636 L 54.350204 0.196732 L 63.004379 0.196732 L 63.004379 43.467598 L 63.137711 43.467598 C 65.300217 38.192596 71.521057 33.867592 82.337738 33.867592 C 95.858582 33.867592 105.729416 41.84259 105.729416 55.230103 L 105.729416 96.467636 L 97.075241 96.467636 Z"/>
            </g>
        </g>
        <g id="g5">
            <g id="g6">
                <path id="path2" fill="#ffffff" stroke="none" d="M 128.034851 59.688438 L 165.622375 59.688438 C 165.759888 59.013443 165.759888 58.471771 165.759888 57.659271 C 165.759888 49.817604 159.672363 41.300926 148.722382 41.300926 C 140.33902 41.300926 130.605682 47.655098 128.034851 59.688438 M 118.705688 65.909279 C 118.705688 46.030098 133.71402 33.863419 148.318207 33.863419 C 165.080719 33.863419 174.409882 45.625931 174.409882 57.52594 C 174.409882 59.013443 174.409882 60.500946 174.143219 61.717613 L 169.001556 66.855118 L 127.359863 66.855118 C 127.764008 79.02179 136.689026 90.380135 151.968201 90.380135 C 159.539032 90.380135 165.351563 88.217636 169.814056 85.109299 L 168.734894 93.625969 C 164.405701 96.196808 158.997375 97.817642 151.022369 97.817642 C 133.443176 97.817642 118.705688 84.700958 118.705688 65.909279"/>
            </g>
        </g>
        <g id="g7">
            <g id="g8">
                <path id="path3" fill="#ffffff" stroke="none" d="M 216.593262 53.605103 C 213.076599 53.605103 209.83075 55.63427 208.076569 59.15094 L 208.076569 72.805122 C 209.83075 76.321793 213.076599 78.350952 216.593262 78.350952 C 222.001587 78.350952 226.734924 73.480118 226.734924 65.775948 C 226.734924 58.205109 222.001587 53.605103 216.593262 53.605103 M 221.326599 98.492638 C 214.83493 98.492638 209.968262 96.196808 207.534912 93.763474 L 207.534912 127.700996 C 194.764069 127.700996 184.414063 117.346825 184.414063 104.580147 L 184.414063 35.21759 L 205.101593 35.21759 L 205.101593 42.517593 L 205.372406 42.655098 C 208.751587 36.163429 215.105743 33.32592 222.543274 33.32592 C 239.039093 33.32592 250.397461 45.492599 250.397461 65.096779 C 250.397461 85.246796 237.684937 98.492638 221.326599 98.492638"/>
            </g>
        </g>
        <g id="g9">
            <g id="g10">
                <path id="path4" fill="#ffffff" stroke="none" d="M 299.334991 61.04261 C 298.118317 60.096779 295.009979 59.013443 292.709991 59.013443 C 287.301636 59.013443 282.839142 62.259277 282.839142 69.425949 L 282.839142 96.467636 L 258.772461 96.467636 L 258.772461 35.21759 L 282.434967 35.21759 L 282.434967 49.684265 L 282.568298 49.684265 C 284.459991 39.542595 291.76416 34.134254 299.739166 34.134254 C 301.634979 34.134254 303.930817 34.271759 305.418335 34.675926 L 299.334991 61.04261 Z"/>
            </g>
        </g>
        <g id="g11">
            <g id="g12">
                <path id="path5" fill="#ffffff" stroke="none" d="M 340.705841 53.605103 C 335.164185 53.605103 330.430847 58.471779 330.430847 66.042618 C 330.430847 73.617615 335.164185 78.350952 340.705841 78.350952 C 346.114197 78.350952 350.847534 73.617615 350.847534 66.042618 C 350.847534 58.471779 346.114197 53.605103 340.705841 53.605103 M 340.705841 98.630142 C 322.047516 98.630142 306.768341 85.650963 306.768341 65.775948 C 306.768341 46.034264 322.047516 33.055092 340.705841 33.055092 C 359.093384 33.055092 374.510071 46.034264 374.510071 65.775948 C 374.510071 85.650963 359.093384 98.630142 340.705841 98.630142"/>
            </g>
        </g>
        <g id="g13">
            <g id="g14">
                <path id="path6" fill="#ffffff" stroke="none" d="M 429.535095 57.659271 C 426.426758 55.630104 422.368408 54.142601 418.176758 54.142601 C 410.87677 54.142601 405.739258 59.550941 405.739258 66.042618 C 405.739258 72.667618 410.605896 78.20929 419.122559 78.20929 C 423.722595 78.20929 427.101746 77.130127 430.618408 75.234283 L 428.589233 95.113472 C 424.801758 97.005142 419.664246 97.950974 414.25592 97.950974 C 396.139221 97.950974 380.589233 85.646797 380.589233 65.905113 C 380.589233 45.896767 396.814209 33.725922 413.44342 33.725922 C 421.69342 33.725922 428.451782 35.213425 433.99762 38.321754 L 429.535095 57.659271 Z"/>
            </g>
        </g>
        <g id="g15">
            <g id="g16">
                <path id="path7" fill="#ffffff" stroke="none" d="M 467.255981 96.734306 C 449.410095 96.734306 441.160095 87.405136 441.160095 71.450951 L 441.160095 0.196732 L 464.955933 0.196732 L 464.955933 68.205116 C 464.955933 72.800949 466.31012 76.450958 471.989319 76.721786 L 467.255981 96.734306 Z"/>
            </g>
        </g>
        <g id="g17">
            <g id="g18">
                <path id="path8" fill="#ffffff" stroke="none" d="M 502.135132 82.809296 C 506.055969 82.809296 509.031006 79.700958 509.031006 75.509293 L 509.031006 71.317619 L 503.218506 71.859283 C 499.160156 72.263451 497.130981 74.425949 497.130981 77.538452 C 497.130981 80.509293 499.026794 82.809296 502.135132 82.809296 M 476.443481 78.484291 C 476.443481 66.988449 484.693481 59.825943 497.539307 58.471771 L 509.031006 57.388443 L 509.031006 55.63427 C 509.031006 52.388435 506.193481 50.496765 500.376831 50.496765 C 494.426819 50.496765 487.530945 52.388435 483.072632 54.959274 L 479.147644 38.325928 C 484.018494 35.350922 494.564331 33.050919 503.755981 33.050919 C 520.251831 33.050919 530.531006 40.355095 530.531006 55.225937 L 530.531006 69.017616 C 530.531006 76.050949 533.36853 81.45929 538.372681 85.784302 L 538.372681 87.134293 L 521.197693 98.359306 C 518.360168 97.142639 515.656006 94.438469 513.897644 90.517632 C 510.651794 95.384308 504.972656 98.630142 496.860168 98.630142 C 484.826782 98.630142 476.443481 90.246796 476.443481 78.484291"/>
            </g>
        </g>
        <g id="g19">
            <g id="g20">
                <path id="path9" fill="#ffffff" stroke="none" d="M 616.385254 96.467636 L 616.385254 59.825943 C 616.385254 56.44677 614.222717 54.013435 610.30188 54.013435 C 606.514404 54.013435 603.810242 56.44677 603.810242 60.367607 L 603.810242 96.467636 L 579.610229 96.467636 L 579.610229 59.825943 C 579.610229 56.44677 577.443542 54.013435 573.522705 54.013435 C 569.73938 54.013435 566.897705 56.44677 566.897705 60.367607 L 566.897705 96.467636 L 542.830994 96.467636 L 542.830994 35.21759 L 565.006042 35.21759 L 565.006042 43.734261 L 565.143555 43.734261 C 567.572693 36.571754 574.201904 33.188423 583.531067 33.188423 C 592.860229 33.188423 599.347717 36.838425 601.647705 43.600929 C 603.810242 36.975922 610.839417 33.188423 620.035217 33.188423 C 633.693604 33.188423 640.585266 40.221764 640.585266 52.659271 L 640.585266 96.467636 L 616.385254 96.467636 Z"/>
            </g>
        </g>
        <g id="g21">
            <g id="g22">
                <path id="path10" fill="#ffffff" stroke="none" d="M 674.518616 82.809296 C 678.439453 82.809296 681.41449 79.700958 681.41449 75.509293 L 681.41449 71.317619 L 675.601929 71.859283 C 671.54364 72.263451 669.514465 74.425949 669.514465 77.538452 C 669.514465 80.509293 671.410278 82.809296 674.518616 82.809296 M 648.831116 78.484291 C 648.831116 66.988449 657.076965 59.825943 669.922791 58.471771 L 681.41449 57.388443 L 681.41449 55.63427 C 681.41449 52.388435 678.576965 50.496765 672.760315 50.496765 C 666.810303 50.496765 659.914429 52.388435 655.456116 54.959274 L 651.535278 38.325928 C 656.401917 35.350922 666.947754 33.050919 676.139465 33.050919 C 692.639465 33.050919 702.91449 40.355095 702.91449 55.225937 L 702.91449 69.017616 C 702.91449 76.050949 705.751953 81.45929 710.756165 85.784302 L 710.756165 87.134293 L 693.585327 98.359306 C 690.743652 97.142639 688.03949 94.438469 686.281128 90.517632 C 683.035278 95.384308 677.360291 98.630142 669.247803 98.630142 C 657.210266 98.630142 648.831116 90.246796 648.831116 78.484291"/>
            </g>
        </g>
        <g id="g23">
            <g id="g24">
                <path id="path11" fill="#ffffff" stroke="none" d="M 757.131165 55.225937 L 742.797852 55.225937 L 742.797852 71.046783 C 742.797852 75.913452 745.231201 78.075958 749.831177 78.075958 C 751.314514 78.075958 752.397827 77.942627 754.697876 77.267624 L 752.668701 95.517639 C 750.506165 96.600967 746.856201 97.409302 741.989502 97.409302 C 726.710327 97.409302 718.864502 89.5718 718.864502 77.267624 L 718.864502 55.225937 L 709.806152 55.225937 L 709.806152 35.213425 L 718.864502 35.213425 L 718.864502 21.830078 L 742.797852 14.121742 L 742.797852 35.213425 L 761.864502 35.213425 L 757.131165 55.225937 Z"/>
            </g>
        </g>
        <g id="g25">
            <g id="g26">
                <path id="path12" fill="#ffffff" stroke="none" d="M 777.006226 29.942589 C 773.085388 29.942589 764.972839 21.967575 764.972839 18.04258 C 764.972839 14.121742 773.085388 6.009232 777.006226 6.009232 C 781.064514 6.009232 789.039551 14.121742 789.039551 18.04258 C 789.039551 21.967575 781.064514 29.942589 777.006226 29.942589 M 764.835388 35.213425 L 789.172852 35.213425 L 789.172852 96.46347 L 764.835388 96.46347 L 764.835388 35.213425 Z"/>
            </g>
        </g>
        <g id="g27">
            <g id="g28">
                <path id="path13" fill="#ffffff" stroke="none" d="M 831.627075 53.605103 C 826.081238 53.605103 821.352051 58.471779 821.352051 66.042618 C 821.352051 73.617615 826.081238 78.350952 831.627075 78.350952 C 837.0354 78.350952 841.768738 73.617615 841.768738 66.042618 C 841.768738 58.471779 837.0354 53.605103 831.627075 53.605103 M 831.627075 98.630142 C 812.96875 98.630142 797.689575 85.650963 797.689575 65.775948 C 797.689575 46.034264 812.96875 33.055092 831.627075 33.055092 C 850.014587 33.055092 865.431274 46.034264 865.431274 65.775948 C 865.431274 85.650963 850.014587 98.630142 831.627075 98.630142"/>
            </g>
        </g>
        <g id="g29">
            <g id="g30">
                <path id="path14" fill="#ffffff" stroke="none" d="M 910.856323 96.467636 L 910.856323 59.825943 C 910.856323 56.44677 908.289673 54.013435 904.639648 54.013435 C 900.985474 54.013435 897.739624 56.44677 897.739624 60.367607 L 897.739624 96.467636 L 873.672974 96.467636 L 873.672974 35.21759 L 895.7146 35.21759 L 895.7146 43.734261 L 895.848022 43.734261 C 898.28125 36.571754 905.043823 33.188423 914.506348 33.188423 C 928.0271 33.188423 935.060547 40.221764 935.060547 52.659271 L 935.060547 96.467636 L 910.856323 96.467636 Z"/>
            </g>
        </g>
        <g id="g31">
            <g id="g32">
                <path id="path15" fill="#ffffff" stroke="none" d="M 983.593872 42.650932 L 962.231323 42.650932 L 962.231323 79.696793 C 962.231323 86.863464 966.152222 89.567627 972.235474 89.567627 C 974.672974 89.567627 976.697998 89.163467 978.322998 88.350967 L 977.377197 95.788467 C 975.618896 96.734306 973.181396 97.005142 970.885498 97.005142 C 961.285522 97.005142 953.714722 91.459305 953.714722 80.780121 L 953.714722 42.650932 L 942.489624 42.650932 L 942.489624 35.213425 L 953.714722 35.213425 L 953.714722 21.963409 L 962.231323 17.500908 L 962.231323 35.213425 L 985.489746 35.213425 L 983.593872 42.650932 Z"/>
            </g>
        </g>
        <g id="g33">
            <g id="g34">
                <path id="path16" fill="#ffffff" stroke="none" d="M 1026.860596 44.138428 C 1025.777222 43.867599 1023.88562 43.596764 1022.26062 43.596764 C 1012.798096 43.596764 1004.143921 49.680099 1004.143921 65.367615 L 1004.143921 96.46347 L 995.493896 96.46347 L 995.493896 35.213425 L 1004.143921 35.213425 L 1004.143921 49.142601 L 1004.281372 49.142601 C 1006.035522 40.488426 1013.202271 34.40509 1023.07312 34.40509 C 1024.831421 34.40509 1027.402222 34.671753 1029.023071 35.213425 L 1026.860596 44.138428 Z"/>
            </g>
        </g>
        <g id="g35">
            <g id="g36">
                <path id="path17" fill="#ffffff" stroke="none" d="M 1081.618896 96.467636 L 1081.618896 87.271797 L 1081.485596 87.271797 C 1079.456421 92.950966 1073.235596 97.817642 1061.606445 97.817642 C 1048.223145 97.817642 1038.218872 89.842636 1038.218872 76.455124 L 1038.218872 35.21759 L 1046.868896 35.21759 L 1046.868896 75.64679 C 1046.868896 84.030128 1052.685547 90.3843 1063.502319 90.3843 C 1074.181396 90.3843 1080.94397 84.030128 1080.94397 75.64679 L 1080.94397 35.21759 L 1089.598145 35.21759 L 1089.598145 96.467636 L 1081.618896 96.467636 Z"/>
            </g>
        </g>
        <g id="g37">
            <g id="g38">
                <path id="path18" fill="#ffffff" stroke="none" d="M 1121.63562 97.142639 C 1114.335693 97.142639 1108.927246 95.246803 1104.327271 92.27597 L 1103.110596 82.809296 C 1108.248169 86.86763 1114.606445 89.83847 1121.768921 89.83847 C 1127.989868 89.83847 1133.398193 86.730133 1133.398193 79.971794 C 1133.398193 66.180115 1104.735596 71.859283 1104.735596 50.359268 C 1104.735596 40.625923 1112.577271 34.538422 1123.393921 34.538422 C 1129.88147 34.538422 1135.968994 36.838425 1138.402344 38.459259 L 1136.51062 45.625931 C 1133.806519 43.867599 1129.206543 41.842598 1123.25647 41.842598 C 1117.310669 41.842598 1113.119019 45.355095 1113.119019 49.955101 C 1113.119019 64.555115 1141.918945 58.609276 1141.918945 79.700958 C 1141.918945 90.380135 1133.939819 97.142639 1121.63562 97.142639"/>
            </g>
        </g>
        <g id="g39">
            <g id="g40">
                <path id="path19" fill="#ffffff" stroke="none" d="M 1190.319092 42.650932 L 1168.956543 42.650932 L 1168.956543 79.696793 C 1168.956543 86.863464 1172.877319 89.567627 1178.960693 89.567627 C 1181.398193 89.567627 1183.423218 89.163467 1185.048218 88.350967 L 1184.102417 95.788467 C 1182.343994 96.734306 1179.906494 97.005142 1177.610718 97.005142 C 1168.010742 97.005142 1160.439819 91.459305 1160.439819 80.780121 L 1160.439819 42.650932 L 1149.214844 42.650932 L 1149.214844 35.213425 L 1160.439819 35.213425 L 1160.439819 21.963409 L 1168.956543 17.500908 L 1168.956543 35.213425 L 1192.214844 35.213425 L 1190.319092 42.650932 Z"/>
            </g>
        </g>
    </g>
</svg>
