<?xml version="1.0" encoding="UTF-8" standalone="no"?>
<!DOCTYPE svg PUBLIC "-//W3C//DTD SVG 1.1//EN" "http://www.w3.org/Graphics/SVG/1.1/DTD/svg11.dtd">
<svg width="100%" height="100%" viewBox="0 0 62 62" version="1.1" xmlns="http://www.w3.org/2000/svg" xmlns:xlink="http://www.w3.org/1999/xlink" xml:space="preserve" xmlns:serif="http://www.serif.com/" style="fill-rule:evenodd;clip-rule:evenodd;stroke-linejoin:round;stroke-miterlimit:2;">
    <g transform="matrix(1,0,0,1,-30.9885,-30.9885)">
        <g transform="matrix(4.16667,0,0,4.16667,0,0)">
            <g transform="matrix(1,0,0,1,12.4372,11.566)">
                <path d="M0,2.651C0.732,2.651 1.326,2.057 1.326,1.325C1.326,0.593 0.732,0 0,0C-0.732,0 -1.326,0.593 -1.326,1.325C-1.326,2.057 -0.732,2.651 0,2.651" style="fill:rgb(255,255,255);fill-rule:nonzero;"/>
            </g>
        </g>
        <g transform="matrix(4.16667,0,0,4.16667,0,0)">
            <g transform="matrix(1,0,0,1,15.4716,32.572)">
                <path d="M0,-0.179C0.009,-0.318 -0.274,-2.914 -0.313,-3.149L-9.053,-2.076C-9.053,-2.076 -3.593,-6.405 -2.07,-7.343C-2.07,-7.343 -3.682,-9.647 -3.823,-9.794L-10.834,-4.548L-7.516,-12.507C-7.516,-12.507 -9.313,-13.362 -10.139,-13.748L-13.677,-5.658L-14.899,-14.37C-15.043,-14.336 -17.631,-13.999 -17.814,-13.933L-16.755,-5.267L-21.985,-12.192C-22.122,-12.113 -23.913,-10.596 -24.372,-10.246C-24.23,-10.113 -21.196,-6.134 -19.775,-4.154C-19.618,-3.937 -19.501,-3.805 -19.292,-3.517L-27.328,-6.765L-28.493,-4.02L-20.388,-0.603C-20.637,-0.57 -29.119,0.496 -29.101,0.597C-29.073,0.76 -28.742,3.562 -28.557,3.506C-28.362,3.447 -21.906,2.693 -19.996,2.474L-26.988,7.741C-26.905,7.902 -25.173,10.135 -25.173,10.135L-18.183,4.882C-18.183,4.882 -21.553,12.81 -21.542,12.949C-21.284,13.077 -18.86,14.11 -18.86,14.11L-14.147,3.206L-6.849,12.756C-5.898,13.999 -4.064,14.191 -2.927,13.115C-2.904,13.093 -2.889,13.077 -2.884,13.069C-4.973,10.293 -10.834,2.477 -11.687,1.353L0,-0.179Z" style="fill:rgb(255,255,255);fill-rule:nonzero;"/>
            </g>
        </g>
        <g transform="matrix(4.16667,0,0,4.16667,0,0)">
            <g transform="matrix(0.999776,0.0211659,0.0211659,-0.999776,8.01002,16.103)">
                <path d="M0.034,-0C0.921,-0.001 1.64,0.719 1.64,1.606C1.641,2.493 0.921,3.212 0.034,3.212C-0.853,3.213 -1.572,2.493 -1.572,1.606C-1.573,0.719 -0.853,-0 0.034,-0" style="fill:rgb(255,255,255);fill-rule:nonzero;"/>
            </g>
        </g>
        <g transform="matrix(4.16667,0,0,4.16667,0,0)">
            <g transform="matrix(1,0,0,1,5.61782,9.858)">
                <path d="M0,1.708C0.472,1.708 0.854,1.326 0.854,0.854C0.854,0.382 0.472,0 0,0C-0.472,0 -0.854,0.382 -0.854,0.854C-0.854,1.326 -0.472,1.708 0,1.708" style="fill:rgb(255,255,255);fill-rule:nonzero;"/>
            </g>
        </g>
    </g>
</svg> 