<?xml version="1.0" encoding="UTF-8" standalone="no"?>
<!DOCTYPE svg PUBLIC "-//W3C//DTD SVG 1.1//EN" "http://www.w3.org/Graphics/SVG/1.1/DTD/svg11.dtd">
<svg width="100%" height="100%" viewBox="0 0 1343 180" version="1.1" xmlns="http://www.w3.org/2000/svg" xmlns:xlink="http://www.w3.org/1999/xlink" xml:space="preserve" xmlns:serif="http://www.serif.com/" style="fill-rule:evenodd;clip-rule:evenodd;stroke-linejoin:round;stroke-miterlimit:2;">
    <g transform="matrix(1,0,0,1,-162.228,-649.408)">
        <g transform="matrix(4.16667,0,0,4.16667,0,0)">
            <g transform="matrix(1,0,0,1,65.0014,157.566)">
                <path d="M0,2.651C0.732,2.651 1.326,2.057 1.326,1.325C1.326,0.593 0.732,0 0,0C-0.732,0 -1.326,0.593 -1.326,1.325C-1.326,2.057 -0.732,2.651 0,2.651" style="fill:rgb(255,76,35);fill-rule:nonzero;"/>
            </g>
        </g>
        <g transform="matrix(4.16667,0,0,4.16667,0,0)">
            <g transform="matrix(1,0,0,1,68.0358,178.572)">
                <path d="M0,-0.179C0.009,-0.318 -0.274,-2.914 -0.313,-3.149L-9.053,-2.076C-9.053,-2.076 -3.593,-6.405 -2.07,-7.343C-2.07,-7.343 -3.682,-9.647 -3.823,-9.794L-10.834,-4.548L-7.516,-12.507C-7.516,-12.507 -9.313,-13.362 -10.139,-13.748L-13.677,-5.658L-14.899,-14.37C-15.043,-14.336 -17.631,-13.999 -17.814,-13.933L-16.755,-5.267L-21.985,-12.192C-22.122,-12.113 -23.913,-10.596 -24.372,-10.246C-24.23,-10.113 -21.196,-6.134 -19.775,-4.154C-19.618,-3.937 -19.501,-3.805 -19.292,-3.517L-27.328,-6.765L-28.493,-4.02L-20.388,-0.603C-20.637,-0.57 -29.119,0.496 -29.101,0.597C-29.073,0.76 -28.742,3.562 -28.557,3.506C-28.362,3.447 -21.906,2.693 -19.996,2.474L-26.988,7.741C-26.905,7.902 -25.173,10.135 -25.173,10.135L-18.183,4.882C-18.183,4.882 -21.553,12.81 -21.542,12.949C-21.284,13.077 -18.86,14.11 -18.86,14.11L-14.147,3.206L-6.849,12.756C-5.898,13.999 -4.064,14.191 -2.927,13.115C-2.904,13.093 -2.889,13.077 -2.884,13.069C-4.973,10.293 -10.834,2.477 -11.687,1.353L0,-0.179Z" style="fill:rgb(255,76,35);fill-rule:nonzero;"/>
            </g>
        </g>
        <g transform="matrix(4.16667,0,0,4.16667,0,0)">
            <g transform="matrix(0.999776,0.0211659,0.0211659,-0.999776,60.5742,162.103)">
                <path d="M0.034,-0C0.921,-0.001 1.64,0.719 1.64,1.606C1.641,2.493 0.921,3.212 0.034,3.212C-0.853,3.213 -1.572,2.493 -1.572,1.606C-1.573,0.719 -0.853,-0 0.034,-0" style="fill:rgb(255,76,35);fill-rule:nonzero;"/>
            </g>
        </g>
        <g transform="matrix(4.16667,0,0,4.16667,0,0)">
            <g transform="matrix(1,0,0,1,58.1818,155.858)">
                <path d="M0,1.708C0.472,1.708 0.854,1.326 0.854,0.854C0.854,0.382 0.472,0 0,0C-0.472,0 -0.854,0.382 -0.854,0.854C-0.854,1.326 -0.472,1.708 0,1.708" style="fill:rgb(255,76,35);fill-rule:nonzero;"/>
            </g>
        </g>
        <g transform="matrix(4.16667,0,0,4.16667,0,0)">
            <g transform="matrix(1,0,0,1,84.9613,185.583)">
                <path d="M0,-7.009L-5.127,-7.009L-5.127,1.882C-5.127,3.602 -4.186,4.251 -2.726,4.251C-2.142,4.251 -1.655,4.154 -1.266,3.959L-1.493,5.744C-1.915,5.971 -2.499,6.036 -3.05,6.036C-5.354,6.036 -7.171,4.705 -7.171,2.142L-7.171,-7.009L-9.865,-7.009L-9.865,-8.794L-7.171,-8.794L-7.171,-11.974L-5.127,-13.045L-5.127,-8.794L0.454,-8.794L0,-7.009Z" style="fill:rgb(255,255,255);fill-rule:nonzero;"/>
            </g>
        </g>
        <g transform="matrix(4.16667,0,0,4.16667,0,0)">
            <g transform="matrix(1,0,0,1,98.2327,168.385)">
                <path d="M0,23.105L0,13.403C0,11.39 -1.395,9.865 -4.024,9.865C-6.555,9.865 -8.177,11.39 -8.177,13.403L-8.177,23.105L-10.254,23.105L-10.254,0L-8.177,0L-8.177,10.385L-8.145,10.385C-7.626,9.119 -6.133,8.081 -3.537,8.081C-0.292,8.081 2.077,9.995 2.077,13.208L2.077,23.105L0,23.105Z" style="fill:rgb(255,255,255);fill-rule:nonzero;"/>
            </g>
        </g>
        <g transform="matrix(4.16667,0,0,4.16667,0,0)">
            <g transform="matrix(1,0,0,1,105.663,185.616)">
                <path d="M0,-2.953L9.021,-2.953C9.054,-3.115 9.054,-3.245 9.054,-3.44C9.054,-5.322 7.593,-7.366 4.965,-7.366C2.953,-7.366 0.617,-5.841 0,-2.953M-2.239,-1.46C-2.239,-6.231 1.363,-9.151 4.868,-9.151C8.891,-9.151 11.13,-6.328 11.13,-3.472C11.13,-3.115 11.13,-2.758 11.066,-2.466L9.832,-1.233L-0.162,-1.233C-0.065,1.687 2.077,4.413 5.744,4.413C7.561,4.413 8.956,3.894 10.027,3.148L9.768,5.192C8.729,5.809 7.431,6.198 5.517,6.198C1.298,6.198 -2.239,3.05 -2.239,-1.46" style="fill:rgb(255,255,255);fill-rule:nonzero;"/>
            </g>
        </g>
        <g transform="matrix(4.16667,0,0,4.16667,0,0)">
            <g transform="matrix(1,0,0,1,126.917,194.119)">
                <path d="M0,-12.916C-0.844,-12.916 -1.623,-12.429 -2.044,-11.585L-2.044,-8.308C-1.623,-7.464 -0.844,-6.977 0,-6.977C1.298,-6.977 2.434,-8.146 2.434,-9.995C2.434,-11.812 1.298,-12.916 0,-12.916M1.136,-2.143C-0.422,-2.143 -1.59,-2.694 -2.174,-3.278L-2.174,4.867C-5.239,4.867 -7.723,2.382 -7.723,-0.682L-7.723,-17.329L-2.758,-17.329L-2.758,-15.577L-2.693,-15.544C-1.882,-17.102 -0.357,-17.783 1.428,-17.783C5.387,-17.783 8.113,-14.863 8.113,-10.158C8.113,-5.322 5.062,-2.143 1.136,-2.143" style="fill:rgb(255,255,255);fill-rule:nonzero;"/>
            </g>
        </g>
        <g transform="matrix(4.16667,0,0,4.16667,0,0)">
            <g transform="matrix(1,0,0,1,146.775,185.032)">
                <path d="M0,-2.044C-0.292,-2.271 -1.038,-2.531 -1.59,-2.531C-2.888,-2.531 -3.959,-1.752 -3.959,-0.032L-3.959,6.458L-9.735,6.458L-9.735,-8.242L-4.056,-8.242L-4.056,-4.77L-4.024,-4.77C-3.57,-7.204 -1.817,-8.502 0.097,-8.502C0.552,-8.502 1.103,-8.469 1.46,-8.372L0,-2.044Z" style="fill:rgb(255,255,255);fill-rule:nonzero;"/>
            </g>
        </g>
        <g transform="matrix(4.16667,0,0,4.16667,0,0)">
            <g transform="matrix(1,0,0,1,156.704,187.077)">
                <path d="M0,-5.874C-1.33,-5.874 -2.466,-4.706 -2.466,-2.889C-2.466,-1.071 -1.33,0.065 0,0.065C1.298,0.065 2.434,-1.071 2.434,-2.889C2.434,-4.706 1.298,-5.874 0,-5.874M0,4.932C-4.478,4.932 -8.145,1.817 -8.145,-2.953C-8.145,-7.691 -4.478,-10.806 0,-10.806C4.413,-10.806 8.113,-7.691 8.113,-2.953C8.113,1.817 4.413,4.932 0,4.932" style="fill:rgb(255,255,255);fill-rule:nonzero;"/>
            </g>
        </g>
        <g transform="matrix(4.16667,0,0,4.16667,0,0)">
            <g transform="matrix(1,0,0,1,178.023,186.102)">
                <path d="M0,-3.926C-0.746,-4.413 -1.72,-4.77 -2.726,-4.77C-4.478,-4.77 -5.711,-3.472 -5.711,-1.914C-5.711,-0.324 -4.543,1.006 -2.499,1.006C-1.395,1.006 -0.584,0.747 0.26,0.292L-0.227,5.063C-1.136,5.517 -2.369,5.744 -3.667,5.744C-8.015,5.744 -11.747,2.791 -11.747,-1.947C-11.747,-6.749 -7.853,-9.67 -3.862,-9.67C-1.882,-9.67 -0.26,-9.313 1.071,-8.567L0,-3.926Z" style="fill:rgb(255,255,255);fill-rule:nonzero;"/>
            </g>
        </g>
        <g transform="matrix(4.16667,0,0,4.16667,0,0)">
            <g transform="matrix(1,0,0,1,187.076,168.385)">
                <path d="M0,23.169C-4.283,23.169 -6.263,20.93 -6.263,17.101L-6.263,0L-0.552,0L-0.552,16.322C-0.552,17.425 -0.227,18.301 1.136,18.366L0,23.169Z" style="fill:rgb(255,255,255);fill-rule:nonzero;"/>
            </g>
        </g>
        <g transform="matrix(4.16667,0,0,4.16667,0,0)">
            <g transform="matrix(1,0,0,1,195.447,180.067)">
                <path d="M0,8.145C0.941,8.145 1.655,7.399 1.655,6.393L1.655,5.387L0.26,5.517C-0.714,5.614 -1.201,6.133 -1.201,6.88C-1.201,7.593 -0.746,8.145 0,8.145M-6.166,7.107C-6.166,4.348 -4.186,2.629 -1.103,2.304L1.655,2.044L1.655,1.623C1.655,0.844 0.974,0.39 -0.422,0.39C-1.85,0.39 -3.505,0.844 -4.575,1.461L-5.517,-2.531C-4.348,-3.245 -1.817,-3.797 0.389,-3.797C4.348,-3.797 6.815,-2.044 6.815,1.525L6.815,4.835C6.815,6.523 7.496,7.821 8.697,8.859L8.697,9.183L4.575,11.877C3.894,11.585 3.245,10.936 2.823,9.995C2.044,11.163 0.681,11.942 -1.266,11.942C-4.154,11.942 -6.166,9.93 -6.166,7.107" style="fill:rgb(255,255,255);fill-rule:nonzero;"/>
            </g>
        </g>
        <g transform="matrix(4.16667,0,0,4.16667,0,0)">
            <g transform="matrix(1,0,0,1,222.867,176.303)">
                <path d="M0,15.187L0,6.393C0,5.582 -0.519,4.998 -1.46,4.998C-2.369,4.998 -3.018,5.582 -3.018,6.523L-3.018,15.187L-8.826,15.187L-8.826,6.393C-8.826,5.582 -9.346,4.998 -10.287,4.998C-11.195,4.998 -11.877,5.582 -11.877,6.523L-11.877,15.187L-17.653,15.187L-17.653,0.487L-12.331,0.487L-12.331,2.531L-12.298,2.531C-11.715,0.812 -10.124,0 -7.885,0C-5.646,0 -4.089,0.876 -3.537,2.499C-3.018,0.909 -1.331,0 0.876,0C4.154,0 5.808,1.688 5.808,4.673L5.808,15.187L0,15.187Z" style="fill:rgb(255,255,255);fill-rule:nonzero;"/>
            </g>
        </g>
        <g transform="matrix(4.16667,0,0,4.16667,0,0)">
            <g transform="matrix(1,0,0,1,236.819,180.067)">
                <path d="M0,8.145C0.941,8.145 1.655,7.399 1.655,6.393L1.655,5.387L0.26,5.517C-0.714,5.614 -1.201,6.133 -1.201,6.88C-1.201,7.593 -0.746,8.145 0,8.145M-6.165,7.107C-6.165,4.348 -4.186,2.629 -1.103,2.304L1.655,2.044L1.655,1.623C1.655,0.844 0.974,0.39 -0.422,0.39C-1.85,0.39 -3.505,0.844 -4.575,1.461L-5.516,-2.531C-4.348,-3.245 -1.817,-3.797 0.389,-3.797C4.349,-3.797 6.815,-2.044 6.815,1.525L6.815,4.835C6.815,6.523 7.496,7.821 8.697,8.859L8.697,9.183L4.576,11.877C3.894,11.585 3.245,10.936 2.823,9.995C2.044,11.163 0.682,11.942 -1.265,11.942C-4.154,11.942 -6.165,9.93 -6.165,7.107" style="fill:rgb(255,255,255);fill-rule:nonzero;"/>
            </g>
        </g>
        <g transform="matrix(4.16667,0,0,4.16667,0,0)">
            <g transform="matrix(1,0,0,1,256.646,181.851)">
                <path d="M0,-0.259L-3.44,-0.259L-3.44,3.538C-3.44,4.706 -2.856,5.225 -1.752,5.225C-1.396,5.225 -1.136,5.193 -0.584,5.031L-1.071,9.411C-1.59,9.671 -2.466,9.865 -3.634,9.865C-7.301,9.865 -9.184,7.984 -9.184,5.031L-9.184,-0.259L-11.358,-0.259L-11.358,-5.062L-9.184,-5.062L-9.184,-8.274L-3.44,-10.124L-3.44,-5.062L1.136,-5.062L0,-0.259Z" style="fill:rgb(255,255,255);fill-rule:nonzero;"/>
            </g>
        </g>
        <g transform="matrix(4.16667,0,0,4.16667,0,0)">
            <g transform="matrix(1,0,0,1,261.416,185.745)">
                <path d="M0,-10.221C-0.941,-10.221 -2.888,-12.135 -2.888,-13.077C-2.888,-14.018 -0.941,-15.965 0,-15.965C0.974,-15.965 2.888,-14.018 2.888,-13.077C2.888,-12.135 0.974,-10.221 0,-10.221M-2.921,-8.956L2.92,-8.956L2.92,5.744L-2.921,5.744L-2.921,-8.956Z" style="fill:rgb(255,255,255);fill-rule:nonzero;"/>
            </g>
        </g>
        <g transform="matrix(4.16667,0,0,4.16667,0,0)">
            <g transform="matrix(1,0,0,1,274.525,187.077)">
                <path d="M0,-5.874C-1.331,-5.874 -2.466,-4.706 -2.466,-2.889C-2.466,-1.071 -1.331,0.065 0,0.065C1.298,0.065 2.434,-1.071 2.434,-2.889C2.434,-4.706 1.298,-5.874 0,-5.874M0,4.932C-4.478,4.932 -8.145,1.817 -8.145,-2.953C-8.145,-7.691 -4.478,-10.806 0,-10.806C4.413,-10.806 8.113,-7.691 8.113,-2.953C8.113,1.817 4.413,4.932 0,4.932" style="fill:rgb(255,255,255);fill-rule:nonzero;"/>
            </g>
        </g>
        <g transform="matrix(4.16667,0,0,4.16667,0,0)">
            <g transform="matrix(1,0,0,1,293.54,176.303)">
                <path d="M0,15.187L0,6.393C0,5.582 -0.616,4.998 -1.492,4.998C-2.369,4.998 -3.148,5.582 -3.148,6.523L-3.148,15.187L-8.924,15.187L-8.924,0.487L-3.634,0.487L-3.634,2.531L-3.602,2.531C-3.018,0.812 -1.395,0 0.876,0C4.121,0 5.809,1.688 5.809,4.673L5.809,15.187L0,15.187Z" style="fill:rgb(255,255,255);fill-rule:nonzero;"/>
            </g>
        </g>
        <g transform="matrix(4.16667,0,0,4.16667,0,0)">
            <g transform="matrix(1,0,0,1,310.997,185.583)">
                <path d="M0,-7.009L-5.127,-7.009L-5.127,1.882C-5.127,3.602 -4.186,4.251 -2.726,4.251C-2.141,4.251 -1.655,4.154 -1.265,3.959L-1.492,5.744C-1.914,5.971 -2.499,6.036 -3.05,6.036C-5.354,6.036 -7.171,4.705 -7.171,2.142L-7.171,-7.009L-9.865,-7.009L-9.865,-8.794L-7.171,-8.794L-7.171,-11.974L-5.127,-13.045L-5.127,-8.794L0.455,-8.794L0,-7.009Z" style="fill:rgb(255,255,255);fill-rule:nonzero;"/>
            </g>
        </g>
        <g transform="matrix(4.16667,0,0,4.16667,0,0)">
            <g transform="matrix(1,0,0,1,321.381,189.153)">
                <path d="M0,-10.222C-0.26,-10.287 -0.714,-10.352 -1.104,-10.352C-3.375,-10.352 -5.452,-8.892 -5.452,-5.127L-5.452,2.336L-7.528,2.336L-7.528,-12.364L-5.452,-12.364L-5.452,-9.021L-5.419,-9.021C-4.998,-11.098 -3.278,-12.558 -0.909,-12.558C-0.487,-12.558 0.13,-12.494 0.519,-12.364L0,-10.222Z" style="fill:rgb(255,255,255);fill-rule:nonzero;"/>
            </g>
        </g>
        <g transform="matrix(4.16667,0,0,4.16667,0,0)">
            <g transform="matrix(1,0,0,1,334.523,177.114)">
                <path d="M0,14.376L0,12.169L-0.032,12.169C-0.519,13.532 -2.012,14.7 -4.803,14.7C-8.015,14.7 -10.416,12.786 -10.416,9.573L-10.416,-0.324L-8.34,-0.324L-8.34,9.379C-8.34,11.391 -6.944,12.916 -4.348,12.916C-1.785,12.916 -0.162,11.391 -0.162,9.379L-0.162,-0.324L1.915,-0.324L1.915,14.376L0,14.376Z" style="fill:rgb(255,255,255);fill-rule:nonzero;"/>
            </g>
        </g>
        <g transform="matrix(4.16667,0,0,4.16667,0,0)">
            <g transform="matrix(1,0,0,1,344.127,176.627)">
                <path d="M0,15.025C-1.752,15.025 -3.05,14.57 -4.154,13.857L-4.446,11.585C-3.213,12.559 -1.687,13.272 0.032,13.272C1.525,13.272 2.823,12.526 2.823,10.904C2.823,7.594 -4.056,8.957 -4.056,3.797C-4.056,1.461 -2.174,0 0.422,0C1.979,0 3.44,0.552 4.024,0.941L3.57,2.661C2.921,2.239 1.817,1.753 0.389,1.753C-1.038,1.753 -2.044,2.596 -2.044,3.7C-2.044,7.204 4.868,5.777 4.868,10.839C4.868,13.402 2.953,15.025 0,15.025" style="fill:rgb(255,255,255);fill-rule:nonzero;"/>
            </g>
        </g>
        <g transform="matrix(4.16667,0,0,4.16667,0,0)">
            <g transform="matrix(1,0,0,1,360.611,185.583)">
                <path d="M0,-7.009L-5.127,-7.009L-5.127,1.882C-5.127,3.602 -4.186,4.251 -2.726,4.251C-2.141,4.251 -1.655,4.154 -1.265,3.959L-1.492,5.744C-1.914,5.971 -2.499,6.036 -3.05,6.036C-5.354,6.036 -7.171,4.705 -7.171,2.142L-7.171,-7.009L-9.865,-7.009L-9.865,-8.794L-7.171,-8.794L-7.171,-11.974L-5.127,-13.045L-5.127,-8.794L0.455,-8.794L0,-7.009Z" style="fill:rgb(255,255,255);fill-rule:nonzero;"/>
            </g>
        </g>
    </g>
</svg> 