<?xml version="1.0" encoding="UTF-8" standalone="no"?>
<!DOCTYPE svg PUBLIC "-//W3C//DTD SVG 1.1//EN" "http://www.w3.org/Graphics/SVG/1.1/DTD/svg11.dtd">
<svg width="100%" height="100%" viewBox="0 0 1264 967" version="1.1" xmlns="http://www.w3.org/2000/svg" xmlns:xlink="http://www.w3.org/1999/xlink" xml:space="preserve" xmlns:serif="http://www.serif.com/" style="fill-rule:evenodd;clip-rule:evenodd;stroke-linejoin:round;stroke-miterlimit:2;">
    <g transform="matrix(1,0,0,1,-156.493,-296.312)">
        <g transform="matrix(4.16667,0,0,4.16667,0,0)">
            <g transform="matrix(-1,0,0,1,67.0554,303.067)">
                <path d="M-0.001,-60.957C16.29,-60.957 29.497,-47.311 29.497,-30.479C29.497,-13.646 16.29,0 -0.001,0C-16.291,0 -29.498,-13.646 -29.498,-30.479C-29.498,-47.311 -16.291,-60.957 -0.001,-60.957" style="fill:rgb(239,76,35);fill-rule:nonzero;"/>
            </g>
        </g>
        <g transform="matrix(4.16667,0,0,4.16667,0,0)">
            <g transform="matrix(-0.999791,-0.0204247,-0.0204247,0.999791,310.069,203.13)">
                <path d="M-0.623,-60.948C15.669,-60.971 28.876,-47.344 28.875,-30.512C28.875,-13.679 15.668,-0.015 -0.623,0.007C-16.914,0.029 -30.121,-13.598 -30.12,-30.43C-30.12,-47.263 -16.913,-60.926 -0.623,-60.948" style="fill:rgb(239,76,35);fill-rule:nonzero;"/>
            </g>
        </g>
        <g transform="matrix(4.16667,0,0,4.16667,0,0)">
            <g transform="matrix(-1,0,0,1,255.746,252.898)">
                <path d="M-0.001,-30.478C8.145,-30.478 14.748,-23.655 14.748,-15.239C14.748,-6.822 8.145,0 -0.001,0C-8.146,0 -14.749,-6.822 -14.749,-15.239C-14.749,-23.655 -8.146,-30.478 -0.001,-30.478" style="fill:rgb(239,76,35);fill-rule:nonzero;"/>
            </g>
        </g>
        <g transform="matrix(4.16667,0,0,4.16667,0,0)">
            <g transform="matrix(0.999779,0.0210324,0.0210324,-0.999779,218.324,150.965)">
                <path d="M0.462,-0.005C12.569,-0.006 22.383,9.837 22.383,21.982C22.382,34.127 12.568,43.973 0.462,43.975C-11.644,43.976 -21.458,34.133 -21.458,21.988C-21.458,9.843 -11.643,-0.003 0.462,-0.005" style="fill:rgb(239,76,35);fill-rule:nonzero;"/>
            </g>
        </g>
        <g transform="matrix(4.16667,0,0,4.16667,0,0)">
            <g transform="matrix(1,0,0,1,260.542,71.1149)">
                <path d="M0,21.99C6.053,21.99 10.961,17.067 10.961,10.995C10.961,4.922 6.053,0 0,0C-6.053,0 -10.96,4.922 -10.96,10.995C-10.96,17.067 -6.053,21.99 0,21.99" style="fill:rgb(239,76,35);fill-rule:nonzero;"/>
            </g>
        </g>
    </g>
</svg>
